<svg width="67" height="26" viewBox="0 0 67 26" fill="none" xmlns="http://www.w3.org/2000/svg">
<path d="M12.4204 23.4129V12.5723H12.3285L9.6705 23.4129H7.38018L4.54089 12.5723H4.47133V23.4129H0V3.20996H4.47133L8.41604 15.0558H8.50795L12.4328 3.20996H16.9041V23.4129H12.4204Z" fill="white"/>
<path d="M65.6814 15.3021C65.0472 14.2712 64.2562 13.3438 63.3364 12.5525L61.6497 11.0743C61.1025 10.6097 60.6078 10.0876 60.1742 9.51716C59.8245 8.99613 59.6505 8.37846 59.6773 7.75311C59.674 7.36636 59.7846 6.98706 59.9953 6.66166C60.0881 6.50927 60.2194 6.38361 60.3763 6.29717C60.5332 6.21073 60.7101 6.1665 60.8896 6.1689C61.5106 6.14919 61.923 6.38079 62.0844 6.8489C62.2832 7.58977 62.3801 8.35388 62.3726 9.1205H66.0987C66.0515 7.51905 65.7062 5.96195 65.0057 4.84832C64.3052 3.7347 62.9737 2.89209 61.0312 2.89209C59.2509 2.89209 57.8516 3.35035 56.8331 4.26687C55.8146 5.18339 55.3062 6.4974 55.3079 8.2089C55.3079 9.38905 55.5389 10.3721 56.0034 11.1457C56.5586 12.0262 57.2512 12.8137 58.0552 13.4789L59.8189 15.0089C60.4782 15.5251 61.0566 16.1354 61.5354 16.8198C61.9061 17.4318 62.0923 18.1363 62.072 18.8499C62.072 19.8354 61.6944 20.3282 60.9393 20.3282C60.6593 20.3334 60.3839 20.2568 60.1476 20.1078C59.9113 19.9588 59.7244 19.7441 59.6103 19.4905C59.3221 18.9312 59.1656 18.1108 59.1507 16.8272H55.4246C55.4917 19.0593 55.8792 21.1683 56.8281 22.1932C57.777 23.2182 59.2253 23.7257 61.1728 23.7257C62.1493 23.7465 63.1144 23.5138 63.9723 23.0506C64.7579 22.6246 65.4082 21.9899 65.8503 21.2176C66.2978 20.4274 66.5283 19.5345 66.5185 18.6282C66.5467 17.4649 66.2574 16.3157 65.6814 15.3021Z" fill="white"/>
<path d="M46.3604 17.8253C46.3852 18.4885 46.2841 19.1505 46.0623 19.7766C45.8611 20.2694 45.4388 20.501 44.8028 20.501C44.1669 20.501 43.7397 20.2546 43.526 19.7766C43.2948 19.1526 43.1884 18.4898 43.213 17.8253V3.17822H38.7417V17.1503C38.7417 18.6285 38.9222 19.8497 39.2832 20.8139C39.6189 21.7424 40.2874 22.5159 41.1612 22.9869C42.053 23.4797 43.2602 23.7261 44.7929 23.7261C46.3256 23.7261 47.5254 23.4797 48.4097 22.9869C49.2787 22.5106 49.9447 21.7389 50.2852 20.8139C50.6562 19.8563 50.8408 18.6351 50.8392 17.1503V3.17822H46.3604V17.8253Z" fill="white"/>
<path d="M27.6799 0V22.9697L34.1683 25.7587L30.3602 9.92159L27.6799 0Z" fill="white"/>
<path d="M21.3655 25.7587L27.68 22.9697V0L25.2183 9.92159L21.3655 25.7587Z" fill="#A5A5A5"/>
</svg>
